<svg xmlns="http://www.w3.org/2000/svg" viewBox="0 0 100 100" width="100" height="100">
  <!-- Background circle -->
  <circle cx="50" cy="50" r="45" fill="#0A1A2F" />
  
  <!-- Stylized US map outline -->
  <path d="M30,25 L40,20 L45,25 L50,22 L55,25 L60,22 L65,25 L70,22 L75,25 L80,22 L85,25 L80,30 L75,35 L70,40 L65,45 L60,50 L55,55 L50,60 L45,65 L40,70 L35,75 L30,70 L25,65 L20,60 L25,55 L30,50 L35,45 L40,40 L45,35 L50,30 L55,35 L60,40 L65,45 L70,50 L75,55 L80,60 L75,65 L70,70 L65,75 L60,80 L55,85 L50,80 L45,75 L40,70 L35,65 L30,60 L25,55 L20,50 L25,45 L30,40 L35,35 L40,30 L45,25 Z" 
        fill="none" stroke="#10B981" stroke-width="2" />
  
  <!-- Trade flow arrows -->
  <path d="M50,50 L65,35 M50,50 L35,65 M50,50 L65,65 M50,50 L35,35" 
        stroke="#3B82F6" stroke-width="2" fill="none" />
  <circle cx="50" cy="50" r="5" fill="#FFFFFF" />
  
  <!-- Text -->
  <text x="50" y="95" font-family="Arial, sans-serif" font-size="8" fill="#FFFFFF" text-anchor="middle">US TRADE MAP</text>
</svg> 