<?xml version="1.0" encoding="UTF-8"?>
<svg width="24" height="24" viewBox="0 0 24 24" fill="none" xmlns="http://www.w3.org/2000/svg">
  <!-- Cup rim -->
  <circle cx="12" cy="12" r="8" stroke="currentColor" stroke-width="2"/>
  
  <!-- Coffee surface -->
  <circle cx="12" cy="12" r="6" fill="#6F4E37"/>
  
  <!-- Coffee foam/steam effect -->
  <path d="M8 10C8 10 9 8 12 8C15 8 16 10 16 10" stroke="white" stroke-width="1" stroke-linecap="round"/>
  <path d="M7 12C7 12 8 11 12 11C16 11 17 12 17 12" stroke="white" stroke-width="1" stroke-linecap="round"/>
  <path d="M9 14C9 14 10 13 12 13C14 13 15 14 15 14" stroke="white" stroke-width="1" stroke-linecap="round"/>
  
  <!-- Handle -->
  <path d="M20 12C20 12 22 12 22 14C22 16 20 16 20 16" stroke="currentColor" stroke-width="2" stroke-linecap="round"/>
</svg> 